# xmcd
#
# Track frame offsets:
#	187
#	16135
#	31417
#	48502
#	63282
#	77927
#	93972
#	109397
#	125012
#	143802
#	161515
#	177785
#	194440
#	211980
#	231470
#	250910
#	275400
#	295877
#	311425
#	329247
#
# Disc length: 4606 seconds
#
# Revision: 1
# Processed by: cddbd v1.5PL3 Copyright (c) Steve Scherf et al.
# Submitted via: CDex 1.50Beta5
#
DISCID=2b11fc14
DTITLE=フランク永井 - フランク永井〈New Best One〉
DYEAR=2002
DGENRE=JPop
TTITLE0=おまえに
TTITLE1=大阪ぐらし
TTITLE2=逢いたくて
TTITLE3=羽田発7時50分
TTITLE4=夜霧の第二国道
TTITLE5=有楽町で逢いましょう
TTITLE6=東京午前三時
TTITLE7=西銀座駅前
TTITLE8=俺は淋しいんだ
TTITLE9=夜霧に消えたチャコ
TTITLE10=こいさんのラブ・コール
TTITLE11=ラブ・レター
TTITLE12=公園の手品師
TTITLE13=悲しみは消えない
TTITLE14=初恋の詩
TTITLE15=妻を恋うる唄
TTITLE16=霧子のタンゴ
TTITLE17=好き好き好き
TTITLE18=東京ナイト・クラブ
TTITLE19=君恋し
EXTD=
EXTT0=
EXTT1=
EXTT2=
EXTT3=
EXTT4=
EXTT5=
EXTT6=
EXTT7=
EXTT8=
EXTT9=
EXTT10=
EXTT11=
EXTT12=
EXTT13=
EXTT14=
EXTT15=
EXTT16=
EXTT17=
EXTT18=
EXTT19=
PLAYORDER=
